<?xml version="1.0" standalone="no"?><!DOCTYPE svg PUBLIC "-//W3C//DTD SVG 1.1//EN" "http://www.w3.org/Graphics/SVG/1.1/DTD/svg11.dtd"><svg t="1669775362753" class="icon" viewBox="0 0 1024 1024" version="1.1" xmlns="http://www.w3.org/2000/svg" p-id="8021" xmlns:xlink="http://www.w3.org/1999/xlink" width="64" height="64"><path d="M63.917686 63.917686h703.094546v379.54322h63.917686V51.166108A51.230025 51.230025 0 0 0 779.76381 0H51.134149A51.230025 51.230025 0 0 0 0 51.166108V971.548827A51.230025 51.230025 0 0 0 51.166108 1022.682976H313.835838v-63.917686H63.917686z" fill="#ffffff" p-id="8022"></path><path d="M191.753058 188.493256h447.423802v63.917686H191.753058zM191.753058 361.646267h447.423802v63.917686H191.753058zM509.551793 611.116996a31.958843 31.958843 0 0 0-45.189804 0l-135.121988 135.121988a40.236183 40.236183 0 0 0 0 56.758905l135.121988 135.121988a31.958843 31.958843 0 0 0 45.189804-45.189804l-118.311637-118.311636 118.311637-118.311637a31.958843 31.958843 0 0 0 0-45.189804zM1010.954081 746.238984l-135.121989-135.121988a31.958843 31.958843 0 0 0-45.189804 45.189804l118.311637 118.311637-118.311637 118.311636a31.958843 31.958843 0 1 0 45.189804 45.221763l135.185906-135.185906a40.236183 40.236183 0 0 0-0.063917-56.726946zM744.001865 527.640498a31.958843 31.958843 0 0 0-39.117624 22.626861L589.097353 982.414834a31.958843 31.958843 0 1 0 61.712526 16.522722l115.818847-432.179434a31.958843 31.958843 0 0 0-22.594902-39.117624z" fill="#ffffff" p-id="8023"></path></svg>