<?xml version="1.0" standalone="no"?><!DOCTYPE svg PUBLIC "-//W3C//DTD SVG 1.1//EN" "http://www.w3.org/Graphics/SVG/1.1/DTD/svg11.dtd"><svg t="1669775259867" class="icon" viewBox="0 0 1024 1024" version="1.1" xmlns="http://www.w3.org/2000/svg" p-id="7215" xmlns:xlink="http://www.w3.org/1999/xlink" width="64" height="64"><path d="M626.9952 830.464c20.548267-6.570667 39.936 0.0512 51.797333 17.732267 11.434667 17.0496 15.4624 45.3632 0.938667 66.474666a47.684267 47.684267 0 0 1-45.346133 20.394667 43.178667 43.178667 0 0 1-27.221334-14.114133c-11.997867-13.141333-19.831467-38.058667-11.554133-60.330667a49.6128 49.6128 0 0 1 31.3856-30.139733z m-138.1888-32.836267a34.133333 34.133333 0 0 1 34.048 31.573334l0.085333 2.56v6.519466a34.133333 34.133333 0 0 1-68.164266 2.56l-0.1024-2.56v-6.519466a34.133333 34.133333 0 0 1 34.133333-34.133334z m132.642133-94.1056a34.133333 34.133333 0 0 1 3.054934 64.6656l-0.477867 0.136534-1.194667 0.768c-6.144 3.618133-13.482667 5.307733-21.026133 4.437333l-2.525867-0.375467a34.133333 34.133333 0 0 1-27.170133-39.8848c4.625067-24.4736 27.562667-35.925333 49.339733-29.7472z m-101.3248-99.6352a34.133333 34.133333 0 0 1 34.048 31.5904l0.085334 2.56v9.728a34.133333 34.133333 0 0 1-68.164267 2.56l-0.1024-2.56v-9.728a34.133333 34.133333 0 0 1 34.133333-34.133333z m-56.439466-7.406933a34.133333 34.133333 0 0 1 2.56 37.649067l-0.853334 1.365333-0.068266 0.2048a34.1504 34.1504 0 0 1-29.218134 22.0672l-2.56 0.119467a34.133333 34.133333 0 0 1-34.338133-33.928534 41.864533 41.864533 0 0 1 16.622933-33.826133 34.133333 34.133333 0 0 1 47.854934 6.3488zM749.346133 124.0576c68.778667-46.677333 156.398933-14.421333 207.018667 59.921067 52.138667 76.578133 47.616 171.144533-26.948267 231.424l-54.3232 44.936533a3327.419733 3327.419733 0 0 1-49.322666 39.8848l-15.223467 11.690667a942.267733 942.267733 0 0 1-75.7248 52.002133 34.133333 34.133333 0 0 1-29.320533 3.037867c-81.681067-29.2352-145.629867-98.986667-175.377067-175.4112-29.730133 76.424533-93.678933 146.176-175.36 175.4112a34.133333 34.133333 0 0 1-29.320533-3.037867c-28.433067-17.408-56.832-37.341867-86.9376-60.552533a2521.2928 2521.2928 0 0 1-46.882134-37.717334l-64.768-53.589333C56.149333 351.709867 52.718933 259.1744 103.901867 183.978667c50.619733-74.3424 138.24-106.5984 207.018666-59.921067 101.5808 68.898133 156.16 107.434667 214.016 153.361067l5.188267 4.1472c53.077333-42.376533 102.3488-77.806933 185.344-134.485334zM569.361067 487.0144c18.432 11.690667 22.869333 31.709867 17.988266 50.466133a34.133333 34.133333 0 0 1-66.9696-4.949333l-0.170666-2.116267-0.9216-2.133333a34.0992 34.0992 0 0 1 1.570133-28.330667l1.399467-2.423466a34.133333 34.133333 0 0 1 47.104-10.513067zM272.605867 180.548267c-32.785067-22.254933-80.622933-4.642133-112.2816 41.864533-33.570133 49.322667-30.958933 104.004267 13.431466 139.8784l46.523734 38.536533c22.4256 18.449067 47.1552 38.621867 59.938133 48.469334l10.530133 8.0384c17.408 13.141333 34.167467 25.0368 50.653867 35.874133l5.239467 3.3792 5.597866-2.6112c65.109333-32.170667 113.271467-100.061867 125.0816-164.778667l0.341334-2.133333-10.018134-7.850667c-42.871467-33.3824-86.784-64.733867-153.719466-110.523733z m313.617066 163.242666l0.3072 1.194667c16.622933 61.44 64.375467 122.9312 126.805334 151.517867l-3.157334-1.536c-2.048-65.860267-61.047467-134.109867-123.9552-151.176534z m313.719467-121.3952c-31.658667-46.4896-79.479467-64.1024-112.264533-41.847466-67.4816 45.755733-113.954133 77.960533-154.350934 107.8272 66.9184 29.576533 122.965333 94.464 139.912534 166.126933l6.826666-5.188267c11.537067-8.925867 32.887467-26.282667 53.4528-43.178666l56.32-46.6432c41.1648-35.874133 42.820267-89.0368 10.103467-137.096534z" fill="#ffffff" p-id="7216"></path><path d="M97.28 476.16l204.8 153.6-40.96 54.613333-204.8-153.6z" fill="#ffffff" p-id="7217"></path></svg>