<?xml version="1.0" standalone="no"?><!DOCTYPE svg PUBLIC "-//W3C//DTD SVG 1.1//EN" "http://www.w3.org/Graphics/SVG/1.1/DTD/svg11.dtd"><svg t="1669775008593" class="icon" viewBox="0 0 1024 1024" version="1.1" xmlns="http://www.w3.org/2000/svg" p-id="5301" xmlns:xlink="http://www.w3.org/1999/xlink" width="64" height="64"><path d="M447.3344 659.712a30.79168 30.79168 0 0 0-32.9216-28.3648c-16.896 1.28-29.5936 16.0256-28.3648 32.9216l7.8336 104.3968a30.75072 30.75072 0 0 0 30.6176 28.416c0.768 0 1.536 0 2.3552-0.1024 16.896-1.28 29.5936-16.0256 28.3648-32.9216l-7.8848-104.3456zM609.5872 631.3984c-16.7936-1.28-31.6416 11.4176-32.9216 28.3648l-7.8336 104.3968c-1.28 16.896 11.4176 31.6416 28.3648 32.9216 0.768 0.0512 1.536 0.1024 2.3552 0.1024 15.9232 0 29.3888-12.288 30.6176-28.416l7.8336-104.3968a30.8224 30.8224 0 0 0-28.416-32.9728z" fill="#ffffff" p-id="5302"></path><path d="M930.2016 435.3024c0-96.4096-78.4384-174.8992-174.8992-174.8992h-1.9456c-45.568-91.0336-138.0864-148.736-241.152-148.736s-195.584 57.7024-241.152 148.736h-4.2496c-96.4096 0-174.8992 78.4384-174.8992 174.8992 0 68.1984 39.2192 127.3344 96.3072 156.16l27.2384 219.5456c6.8096 54.6816 55.4496 95.9488 113.152 95.9488h359.3728c56.064 0 104.5504-39.8848 112.7424-92.8256l34.6624-223.4368c56.2176-29.0304 94.8224-87.7568 94.8224-155.392z m-159.9488 174.2848l-30.2592 195.1744c-3.6352 23.2448-25.9584 40.8064-52.0192 40.8064H328.6016c-26.7776 0-49.2032-18.0736-52.224-42.0864l-24.064-193.8432c1.2288 0.1024 2.4064 0.1536 3.6352 0.2048l2.56 0.1536c2.7648 0.1024 5.4784 0.2048 8.2432 0.2048h488.5504c2.7648 0 5.5808-0.1024 8.3456-0.2048l2.6112-0.1536c1.3312-0.1024 2.6624-0.1536 3.9936-0.256z m25.6512-68.352c-2.9696 1.1264-5.9392 2.1504-8.96 3.0208l-1.0752 0.3072c-3.0208 0.8704-6.0416 1.5872-9.1136 2.1504-0.4096 0.1024-0.8192 0.1536-1.2288 0.2048-3.072 0.5632-6.1952 1.024-9.3184 1.28-0.3584 0.0512-0.7168 0.0512-1.0752 0.1024-3.2768 0.256-6.5024 0.4608-9.8304 0.4608H266.8032c-3.072 0-6.144-0.1536-9.216-0.4096-0.4608-0.0512-0.9728-0.0512-1.4336-0.1024-2.8672-0.256-5.6832-0.6656-8.4992-1.1264-0.6144-0.1024-1.2288-0.2048-1.8944-0.3584-2.7648-0.512-5.4784-1.1264-8.1408-1.8432-0.6144-0.1536-1.2288-0.3584-1.8944-0.512-2.6624-0.768-5.3248-1.5872-7.9872-2.56-43.3664-15.9744-74.3936-57.6512-74.3936-106.496 0-62.5664 50.8928-113.4592 113.4592-113.4592h24.0128c12.4928 0 23.7056-7.5264 28.416-19.0976 32.2048-78.7456 107.9296-129.6384 192.9728-129.6384s160.768 50.8928 192.9728 129.6384a30.68416 30.68416 0 0 0 28.416 19.0976h21.76c62.5664 0 113.4592 50.8928 113.4592 113.4592-0.0512 48.2304-30.3616 89.4976-72.9088 105.8816z" fill="#ffffff" p-id="5303"></path><path d="M450.1504 247.7056c-2.7648 1.28-67.9936 31.9488-92.5696 103.2192a30.73024 30.73024 0 0 0 29.0304 40.7552c12.7488 0 24.6272-7.9872 29.0304-20.6848 15.7696-45.6192 59.2896-67.0208 60.3136-67.5328a30.67904 30.67904 0 0 0 14.8992-40.6528c-7.0144-15.4112-25.2928-22.1696-40.704-15.104z" fill="#ffffff" p-id="5304"></path></svg>