<?xml version="1.0" standalone="no"?><!DOCTYPE svg PUBLIC "-//W3C//DTD SVG 1.1//EN" "http://www.w3.org/Graphics/SVG/1.1/DTD/svg11.dtd"><svg t="1669773173939" class="icon" viewBox="0 0 1024 1024" version="1.1" xmlns="http://www.w3.org/2000/svg" p-id="2997" xmlns:xlink="http://www.w3.org/1999/xlink" width="64" height="64"><path d="M924.47 337.94A446.9 446.9 0 1 0 959.76 512a447.53 447.53 0 0 0-35.29-174.06zM512 911.76c-220.43 0-399.76-179.33-399.76-399.76S291.57 112.24 512 112.24 911.76 291.57 911.76 512 732.43 911.76 512 911.76z" fill="#ffffff" p-id="2998"></path><path d="M683.64 395.79l-82 28.87a122.6 122.6 0 0 0-175.38-35L391 354.41a78.27 78.27 0 0 0-63.36-118.65 78.29 78.29 0 1 0-7.28 156.41c1.21 0.06 2.42 0.09 3.64 0.09s2.43 0 3.64-0.09a78 78 0 0 0 27.03-6.17l38.71 38.71a122.53 122.53 0 0 0-4.94 121.09l-63.73 44.93a78.14 78.14 0 0 0-36.26-10.86 78.29 78.29 0 1 0-7.28 156.41c1.21 0.06 2.42 0.09 3.64 0.09s2.43 0 3.64-0.09a78.3 78.3 0 0 0 68.19-109.34l61.81-43.57a122.53 122.53 0 0 0 125 20L592 676.91a78.25 78.25 0 0 0 53.78 131.33c1.22 0 2.44 0.08 3.66 0.08s2.43 0 3.64-0.08a78.29 78.29 0 0 0 0-156.41 78.3 78.3 0 0 0-19.08 1.46L583.57 577a122.56 122.56 0 0 0 35.06-107.44l68-23.95a78.39 78.39 0 0 0 68.9 48.84c1.21 0.06 2.43 0.08 3.64 0.08s2.44 0 3.64-0.08a78.29 78.29 0 1 0-79.19-98.67z m-34.18 304h1.43a30.29 30.29 0 0 1 0 60.51h-2.8a30.29 30.29 0 0 1 1.39-60.55zM325.39 344.22h-2.82a30.29 30.29 0 0 1 1.43-60.54h1.43a30.29 30.29 0 0 1 0 60.51zM307.2 678.46a30 30 0 0 1-21 9.86 26.53 26.53 0 0 1-2.82 0 30.29 30.29 0 0 1 1.39-60.54h1.43a30.29 30.29 0 0 1 21 50.65z m115.59-188.89a74.74 74.74 0 1 1 74.74 74.74 74.82 74.82 0 0 1-74.74-74.74z m366.66-74.72a30.33 30.33 0 0 1-28.85 31.66c-0.93 0.05-1.88 0-2.82 0a30.29 30.29 0 0 1 1.4-60.55h1.42a30.15 30.15 0 0 1 28.85 28.89z" fill="#ffffff" p-id="2999"></path></svg>