<?xml version="1.0" standalone="no"?><!DOCTYPE svg PUBLIC "-//W3C//DTD SVG 1.1//EN" "http://www.w3.org/Graphics/SVG/1.1/DTD/svg11.dtd"><svg t="1663225688373" class="icon" viewBox="0 0 1024 1024" version="1.1" xmlns="http://www.w3.org/2000/svg" p-id="5382" xmlns:xlink="http://www.w3.org/1999/xlink" width="48" height="48"><path d="M785.77 245.84zM785.83 246c-0.06 0-0.08-0.06-0.12-0.08-158.21-158.34-414.78-158.37-573.04-0.11-155.6 161-151.2 417.71 9.82 573.3 157.12 151.79 406.24 151.82 563.37 0 158.27-158.23 158.25-414.85-0.03-573.11z m-111 462.12a35.08 35.08 0 0 1-48.57 1l-127.18-127-126.92 127a35.07 35.07 0 0 1-49.56-49.56l127.1-127-127.1-127A35.07 35.07 0 0 1 372.14 356l126.93 127 127.09-127.13a35.07 35.07 0 0 1 49.56 49.56l-127 127.09 127.16 127a35.08 35.08 0 0 1-1.07 48.58z" p-id="5383" fill="#e64015"></path></svg>